<svg width="700" height="540" viewBox="0 0 700 540" xmlns="http://www.w3.org/2000/svg" font-family="-apple-system, Segoe UI, Roboto, Helvetica, Arial, sans-serif">
  <defs>
    <marker id="arrow" viewBox="0 0 10 10" refX="8" refY="5" markerWidth="6" markerHeight="6" orient="auto-start-reverse">
      <path d="M2 1L8 5L2 9" fill="none" stroke="#6b7280" stroke-width="1.5" stroke-linecap="round" stroke-linejoin="round"/>
    </marker>
  </defs>

  <!-- shared load -->
  <rect x="250" y="30" width="200" height="48" rx="8" fill="#f3f4f6" stroke="#9ca3af" stroke-width="1"/>
  <text x="350" y="50" text-anchor="middle" font-size="13" font-weight="600" fill="#111827">Load source + candidate</text>
  <text x="350" y="67" text-anchor="middle" font-size="11" fill="#6b7280">Python source · C# candidate</text>

  <path d="M320 78 L200 116" fill="none" stroke="#6b7280" stroke-width="1.4" marker-end="url(#arrow)"/>
  <path d="M380 78 L500 116" fill="none" stroke="#6b7280" stroke-width="1.4" marker-end="url(#arrow)"/>

  <text x="180" y="102" text-anchor="middle" font-size="12.5" font-weight="700" fill="#15803d">Evidence-grounded · BUILT</text>
  <text x="520" y="102" text-anchor="middle" font-size="12.5" font-weight="700" fill="#6b7280">Execution-based · not taken</text>

  <!-- LEFT column: built (green) -->
  <rect x="60" y="118" width="240" height="54" rx="8" fill="#dcfce7" stroke="#16a34a" stroke-width="1.6"/>
  <text x="180" y="138" text-anchor="middle" font-size="13" font-weight="600" fill="#14532d">extract_expectations</text>
  <text x="180" y="156" text-anchor="middle" font-size="11" fill="#166534">grounded rubric — the spec</text>

  <rect x="60" y="198" width="240" height="54" rx="8" fill="#dcfce7" stroke="#16a34a" stroke-width="1"/>
  <text x="180" y="218" text-anchor="middle" font-size="13" font-weight="600" fill="#14532d">compare_candidate</text>
  <text x="180" y="236" text-anchor="middle" font-size="11" fill="#166534">recall: did behavior survive?</text>

  <rect x="60" y="278" width="240" height="54" rx="8" fill="#dcfce7" stroke="#16a34a" stroke-width="1"/>
  <text x="180" y="298" text-anchor="middle" font-size="13" font-weight="600" fill="#14532d">decide</text>
  <text x="180" y="316" text-anchor="middle" font-size="11" fill="#166534">deterministic · no LLM</text>

  <rect x="60" y="358" width="240" height="54" rx="8" fill="#dcfce7" stroke="#16a34a" stroke-width="1"/>
  <text x="180" y="378" text-anchor="middle" font-size="13" font-weight="600" fill="#14532d">ValidationVerdict</text>
  <text x="180" y="396" text-anchor="middle" font-size="11" fill="#166534">approve · regenerate · review</text>

  <line x1="180" y1="172" x2="180" y2="198" stroke="#16a34a" stroke-width="1.4" marker-end="url(#arrow)"/>
  <line x1="180" y1="252" x2="180" y2="278" stroke="#16a34a" stroke-width="1.4" marker-end="url(#arrow)"/>
  <line x1="180" y1="332" x2="180" y2="358" stroke="#16a34a" stroke-width="1.4" marker-end="url(#arrow)"/>

  <!-- RIGHT column: not taken (gray, dashed) -->
  <rect x="400" y="118" width="240" height="54" rx="8" fill="#f9fafb" stroke="#9ca3af" stroke-width="1" stroke-dasharray="5 4"/>
  <text x="520" y="138" text-anchor="middle" font-size="13" font-weight="600" fill="#374151">compile</text>
  <text x="520" y="156" text-anchor="middle" font-size="11" fill="#6b7280">dotnet build</text>

  <rect x="400" y="198" width="240" height="54" rx="8" fill="#f9fafb" stroke="#9ca3af" stroke-width="1" stroke-dasharray="5 4"/>
  <text x="520" y="218" text-anchor="middle" font-size="13" font-weight="600" fill="#374151">execute</text>
  <text x="520" y="236" text-anchor="middle" font-size="11" fill="#6b7280">run the candidate</text>

  <rect x="400" y="278" width="240" height="54" rx="8" fill="#f9fafb" stroke="#9ca3af" stroke-width="1" stroke-dasharray="5 4"/>
  <text x="520" y="298" text-anchor="middle" font-size="13" font-weight="600" fill="#374151">differential test</text>
  <text x="520" y="316" text-anchor="middle" font-size="11" fill="#6b7280">compare outputs to source</text>

  <rect x="400" y="358" width="240" height="54" rx="8" fill="#f9fafb" stroke="#9ca3af" stroke-width="1" stroke-dasharray="5 4"/>
  <text x="520" y="378" text-anchor="middle" font-size="13" font-weight="600" fill="#374151">equivalence verdict</text>
  <text x="520" y="396" text-anchor="middle" font-size="11" fill="#6b7280">behavioral ground truth</text>

  <line x1="520" y1="172" x2="520" y2="198" stroke="#9ca3af" stroke-width="1.4" stroke-dasharray="5 4" marker-end="url(#arrow)"/>
  <line x1="520" y1="252" x2="520" y2="278" stroke="#9ca3af" stroke-width="1.4" stroke-dasharray="5 4" marker-end="url(#arrow)"/>
  <line x1="520" y1="332" x2="520" y2="358" stroke="#9ca3af" stroke-width="1.4" stroke-dasharray="5 4" marker-end="url(#arrow)"/>

  <!-- note strip -->
  <rect x="60" y="446" width="580" height="64" rx="8" fill="#f9fafb" stroke="#d1d5db" stroke-width="1"/>
  <text x="76" y="468" text-anchor="start" font-size="11.5" fill="#374151">Ground truth differs: source quotes (left) vs running code (right). The MVP took the left.</text>
  <text x="76" y="490" text-anchor="start" font-size="11.5" fill="#374151">The verdict records which checks ran — so APPROVE means no blocking issue found, not proven equivalent.</text>
</svg>
